<svg width="613" height="135" viewBox="0 0 613 135" fill="none" xmlns="http://www.w3.org/2000/svg">
<path d="M25.9693 132H0.0720034V2.6039H25.9693V132ZM152.806 132H125.104L75.2045 46.8187V132H49.3072V2.6039H77.0092L126.909 87.8754V2.6039H152.806V132ZM279.823 67.302C279.823 73.2574 279.041 79.0023 277.477 84.5367C275.973 90.0109 273.808 95.1543 270.98 99.9668C268.153 104.719 264.784 109.08 260.874 113.051C256.964 116.961 252.603 120.33 247.79 123.157C242.978 125.984 237.804 128.18 232.27 129.744C226.796 131.248 221.081 132 215.125 132H176.144V2.6039H215.125C221.081 2.6039 226.796 3.38594 232.27 4.95C237.804 6.4539 242.978 8.61953 247.79 11.4469C252.603 14.2742 256.964 17.673 260.874 21.6434C264.784 25.5535 268.153 29.9148 270.98 34.7273C273.808 39.4797 275.973 44.623 277.477 50.1574C279.041 55.6316 279.823 61.3465 279.823 67.302ZM253.926 67.302C253.926 61.948 252.903 56.925 250.858 52.2328C248.873 47.5406 246.106 43.45 242.557 39.9609C239.067 36.4117 234.947 33.6145 230.194 31.5691C225.502 29.5238 220.479 28.5012 215.125 28.5012H202.222V106.103H215.125C220.479 106.103 225.502 105.11 230.194 103.125C234.947 101.08 239.067 98.3125 242.557 94.8234C246.106 91.2742 248.873 87.1535 250.858 82.4613C252.903 77.709 253.926 72.6559 253.926 67.302ZM322.201 132H296.304V2.6039H322.201V132ZM448.857 118.736C442.842 123.909 436.104 127.879 428.645 130.646C421.185 133.414 413.455 134.797 405.454 134.797C399.318 134.797 393.393 133.985 387.678 132.361C382.024 130.797 376.7 128.571 371.707 125.684C366.774 122.736 362.262 119.217 358.172 115.126C354.081 111.036 350.562 106.524 347.614 101.591C344.727 96.598 342.471 91.2742 340.847 85.6195C339.283 79.9047 338.5 73.9793 338.5 67.8434C338.5 61.7074 339.283 55.782 340.847 50.0672C342.471 44.3523 344.727 39.0285 347.614 34.0957C350.562 29.1027 354.081 24.5609 358.172 20.4703C362.262 16.3797 366.774 12.8906 371.707 10.0031C376.7 7.05547 382.024 4.79961 387.678 3.23554C393.393 1.61133 399.318 0.799217 405.454 0.799217C413.455 0.799217 421.185 2.18281 428.645 4.95C436.104 7.65703 442.842 11.6273 448.857 16.8609L435.142 39.4195C431.352 35.3289 426.87 32.2008 421.697 30.0352C416.523 27.8094 411.109 26.6965 405.454 26.6965C399.74 26.6965 394.386 27.7793 389.393 29.9449C384.4 32.1105 380.038 35.0582 376.309 38.7879C372.579 42.4574 369.631 46.8187 367.466 51.8719C365.3 56.8648 364.217 62.1887 364.217 67.8434C364.217 73.498 365.3 78.8219 367.466 83.8148C369.631 88.7477 372.579 93.0789 376.309 96.8086C380.038 100.538 384.4 103.486 389.393 105.652C394.386 107.817 399.74 108.9 405.454 108.9C411.109 108.9 416.523 107.817 421.697 105.652C426.87 103.426 431.352 100.268 435.142 96.177L448.857 118.736Z" fill="white"/>
<path d="M539.329 80.2957V54.3984C539.329 50.8492 538.638 47.5105 537.254 44.3824C535.931 41.1941 534.096 38.427 531.75 36.0809C529.404 33.7348 526.637 31.9 523.448 30.5766C520.32 29.193 516.981 28.5012 513.432 28.5012C509.883 28.5012 506.514 29.193 503.326 30.5766C500.198 31.9 497.461 33.7348 495.115 36.0809C492.769 38.427 490.904 41.1941 489.52 44.3824C488.197 47.5105 487.535 50.8492 487.535 54.3984V80.2957H539.329ZM565.227 132H539.329V106.103H487.535V132H461.728V54.3984C461.728 47.2398 463.081 40.5324 465.788 34.2762C468.496 27.9598 472.165 22.4555 476.797 17.7633C481.489 13.0711 486.963 9.37148 493.22 6.66445C499.536 3.95742 506.274 2.6039 513.432 2.6039C520.591 2.6039 527.298 3.95742 533.554 6.66445C539.871 9.37148 545.375 13.0711 550.067 17.7633C554.76 22.4555 558.459 27.9598 561.166 34.2762C563.873 40.5324 565.227 47.2398 565.227 54.3984V132ZM612.838 132H586.941V2.6039H612.838V132Z" fill="#8498FF"/>
</svg>
